<?xml version="1.0" encoding="UTF-8"?>
<svg xmlns="http://www.w3.org/2000/svg" xmlns:xlink="http://www.w3.org/1999/xlink" viewBox="0 0 147.82 31.43">
  <defs>
    <style>
      .cls-1 {
        stroke-dasharray: 5.98 3.99;
      }

      .cls-1, .cls-2 {
        fill: none;
        stroke: #74dace;
        stroke-linecap: round;
        stroke-miterlimit: 10;
      }

      .cls-3 {
        fill: url(#linear-gradient);
      }

      .cls-3, .cls-4, .cls-5 {
        stroke: #98aeb1;
        stroke-linejoin: round;
        stroke-width: .5px;
      }

      .cls-4 {
        fill: url(#linear-gradient-2);
      }

      .cls-5 {
        fill: #ececec;
      }
    </style>
    <linearGradient id="linear-gradient" x1="130.12" y1="27.17" x2="126.45" y2="12.51" gradientUnits="userSpaceOnUse">
      <stop offset=".11" stop-color="#c9bacd"/>
      <stop offset=".29" stop-color="#bab0c8"/>
      <stop offset=".61" stop-color="#9597bb"/>
      <stop offset="1" stop-color="#6174a9"/>
    </linearGradient>
    <linearGradient id="linear-gradient-2" x1="128.73" y1="29.16" x2="127.11" y2="22.68" gradientUnits="userSpaceOnUse">
      <stop offset=".11" stop-color="#ba9bc9"/>
      <stop offset=".31" stop-color="#ab94c3"/>
      <stop offset=".68" stop-color="#8684b6"/>
      <stop offset="1" stop-color="#6174a9"/>
    </linearGradient>
  </defs>
  <g id="plane">
    <polygon class="cls-3" points="109.92 19.93 109.97 16.64 147.54 22.81 109.92 20.43 109.92 19.93"/>
    <path class="cls-4" d="M109.22,25.33l.3,3.5c12.26-1.97,24.52-3.94,36.78-5.91-12.36.8-24.72,1.61-37.08,2.41Z"/>
    <polygon class="cls-5" points="107.77 19.1 147.54 22.81 102.39 27.09 107.77 19.1"/>
    <path class="cls-5" d="M109.98,16.63c2.31-1.76,4.62-3.52,6.93-5.29,10.22,3.81,20.44,7.63,30.66,11.44-12.53-2.05-25.06-4.1-37.59-6.15Z"/>
  </g>
  <g id="dotted_line" data-name="dotted line">
    <g>
      <path class="cls-2" d="M100.77,17.52c-.99.09-1.99.18-2.98.27"/>
      <path class="cls-1" d="M93.82,18.12c-15.11,1.23-30.32,1.85-45.45.99-8.76-.5-17.86-1.29-26.21-4.15-3.22-1.1-7.1-3.1-6.97-7.02C15.43.21,23.83-1.06,29.31,2.12c6.05,3.51,16.9,13.61,12.52,22.29-1.06,2.1-3.49,3.16-5.69,3.99-9.52,3.58-20.7,2.88-30.76.86"/>
      <path class="cls-2" d="M3.42,28.85c-.99-.22-1.96-.45-2.92-.68"/>
    </g>
  </g>
</svg>