<?xml version="1.0" encoding="UTF-8"?>
<svg id="Layer_5" data-name="Layer 5" xmlns="http://www.w3.org/2000/svg" viewBox="0 0 181.05 34.11">
  <defs>
    <style>
      .cls-1 {
        fill: none;
        stroke: #acb7b2;
        stroke-miterlimit: 10;
        stroke-width: 2px;
      }
    </style>
  </defs>
  <path class="cls-1" d="M2.68,4.12l15.83-3.08c.26-.05.53-.05.79,0l15.83,3.08c.97.19,1.68,1.04,1.68,2.04v3.54c0,.99-.7,1.85-1.68,2.04l-15.83,3.08c-.26.05-.53.05-.79,0l-15.83-3.08c-.97-.19-1.68-1.04-1.68-2.04v-3.54c0-.99.7-1.85,1.68-2.04Z"/>
  <path class="cls-1" d="M38.49,4.12l15.83-3.08c.26-.05.53-.05.79,0l15.83,3.08c.97.19,1.68,1.04,1.68,2.04v3.54c0,.99-.7,1.85-1.68,2.04l-15.83,3.08c-.26.05-.53.05-.79,0l-15.83-3.08c-.97-.19-1.68-1.04-1.68-2.04v-3.54c0-.99.7-1.85,1.68-2.04Z"/>
  <path class="cls-1" d="M74.3,4.12l15.83-3.08c.26-.05.53-.05.79,0l15.83,3.08c.97.19,1.68,1.04,1.68,2.04v3.54c0,.99-.7,1.85-1.68,2.04l-15.83,3.08c-.26.05-.53.05-.79,0l-15.83-3.08c-.97-.19-1.68-1.04-1.68-2.04v-3.54c0-.99.7-1.85,1.68-2.04Z"/>
  <path class="cls-1" d="M110.11,4.12l15.83-3.08c.26-.05.53-.05.79,0l15.83,3.08c.97.19,1.68,1.04,1.68,2.04v3.54c0,.99-.7,1.85-1.68,2.04l-15.83,3.08c-.26.05-.53.05-.79,0l-15.83-3.08c-.97-.19-1.68-1.04-1.68-2.04v-3.54c0-.99.7-1.85,1.68-2.04Z"/>
  <path class="cls-1" d="M145.92,4.12l15.83-3.08c.26-.05.53-.05.79,0l15.83,3.08c.97.19,1.68,1.04,1.68,2.04v3.54c0,.99-.7,1.85-1.68,2.04l-15.83,3.08c-.26.05-.53.05-.79,0l-15.83-3.08c-.97-.19-1.68-1.04-1.68-2.04v-3.54c0-.99.7-1.85,1.68-2.04Z"/>
  <path class="cls-1" d="M2.68,22.38l15.83-3.08c.26-.05.53-.05.79,0l15.83,3.08c.97.19,1.68,1.04,1.68,2.04v3.54c0,.99-.7,1.85-1.68,2.04l-15.83,3.08c-.26.05-.53.05-.79,0l-15.83-3.08c-.97-.19-1.68-1.04-1.68-2.04v-3.54c0-.99.7-1.85,1.68-2.04Z"/>
  <path class="cls-1" d="M38.49,22.38l15.83-3.08c.26-.05.53-.05.79,0l15.83,3.08c.97.19,1.68,1.04,1.68,2.04v3.54c0,.99-.7,1.85-1.68,2.04l-15.83,3.08c-.26.05-.53.05-.79,0l-15.83-3.08c-.97-.19-1.68-1.04-1.68-2.04v-3.54c0-.99.7-1.85,1.68-2.04Z"/>
  <path class="cls-1" d="M74.3,22.38l15.83-3.08c.26-.05.53-.05.79,0l15.83,3.08c.97.19,1.68,1.04,1.68,2.04v3.54c0,.99-.7,1.85-1.68,2.04l-15.83,3.08c-.26.05-.53.05-.79,0l-15.83-3.08c-.97-.19-1.68-1.04-1.68-2.04v-3.54c0-.99.7-1.85,1.68-2.04Z"/>
  <path class="cls-1" d="M110.11,22.38l15.83-3.08c.26-.05.53-.05.79,0l15.83,3.08c.97.19,1.68,1.04,1.68,2.04v3.54c0,.99-.7,1.85-1.68,2.04l-15.83,3.08c-.26.05-.53.05-.79,0l-15.83-3.08c-.97-.19-1.68-1.04-1.68-2.04v-3.54c0-.99.7-1.85,1.68-2.04Z"/>
  <path class="cls-1" d="M145.92,22.38l15.83-3.08c.26-.05.53-.05.79,0l15.83,3.08c.97.19,1.68,1.04,1.68,2.04v3.54c0,.99-.7,1.85-1.68,2.04l-15.83,3.08c-.26.05-.53.05-.79,0l-15.83-3.08c-.97-.19-1.68-1.04-1.68-2.04v-3.54c0-.99.7-1.85,1.68-2.04Z"/>
  <line class="cls-1" x1="18.91" y1="19.24" x2="18.91" y2="14.88"/>
  <line class="cls-1" x1="54.72" y1="19.24" x2="54.72" y2="14.88"/>
  <line class="cls-1" x1="90.53" y1="19.24" x2="90.53" y2="14.88"/>
  <line class="cls-1" x1="126.34" y1="19.24" x2="126.34" y2="14.88"/>
  <line class="cls-1" x1="162.15" y1="19.24" x2="162.15" y2="14.88"/>
</svg>