<?xml version="1.0" encoding="UTF-8"?>
<svg id="Layer_1" data-name="Layer 1" xmlns="http://www.w3.org/2000/svg" viewBox="0 0 86.97 105.79">
  <defs>
    <style>
      .cls-1 {
        fill: #da6c6c;
      }

      .cls-2 {
        fill: #c10a0a;
      }

      .cls-3 {
        fill: #f8e2e2;
      }
    </style>
  </defs>
  <g id="page">
    <path class="cls-2" d="M64.79,0H9.89C4.45,0,0,4.45,0,9.89v85.96c0,5.44,4.45,9.89,9.89,9.89h67.19c5.44,0,9.89-4.45,9.89-9.89V22.18L64.79,0Z"/>
    <path class="cls-1" d="M74.68,22.18c-5.44,0-9.89-4.45-9.89-9.89V0s22.18,22.18,22.18,22.18h-12.29Z"/>
  </g>
  <g>
    <path class="cls-3" d="M24.65,81.59c0-.39.14-.71.43-.96.29-.25.64-.38,1.05-.38h5.46c.99,0,1.86.2,2.62.59.76.39,1.35.94,1.77,1.65s.63,1.53.63,2.46-.21,1.78-.62,2.49c-.41.71-1,1.26-1.75,1.65-.75.39-1.64.58-2.65.58h-4v2.64c0,.69-.25,1.22-.75,1.58-.5.36-1.23.54-2.19.54v-12.84ZM31.59,87.13c.67,0,1.18-.19,1.54-.57.36-.38.54-.92.54-1.63s-.18-1.21-.54-1.58c-.36-.37-.87-.56-1.54-.56h-4v4.34h4Z"/>
    <path class="cls-3" d="M38.84,93.87c-.29-.25-.43-.57-.43-.96v-11.32c0-.39.14-.71.43-.96.29-.25.64-.38,1.05-.38h4.36c1.2,0,2.26.23,3.18.69s1.64,1.11,2.15,1.95c.51.84.77,1.8.77,2.88v2.92c0,1.08-.26,2.04-.77,2.89-.51.85-1.23,1.5-2.16,1.97-.93.47-1.98.7-3.17.7h-4.36c-.41,0-.76-.13-1.05-.38ZM44.05,91.73c1.11,0,1.94-.25,2.51-.76.57-.51.85-1.25.85-2.24v-3c0-.97-.28-1.71-.85-2.21s-1.4-.75-2.51-.75h-2.7v8.96h2.7Z"/>
    <path class="cls-3" d="M52.15,81.59c0-.37.14-.69.43-.95.29-.26.64-.39,1.05-.39h9.1c0,.88-.15,1.52-.44,1.92-.29.4-.77.6-1.42.6h-5.78v3.06h5.24c0,.88-.15,1.52-.44,1.92s-.77.6-1.42.6h-3.38v4.06c0,.71-.23,1.22-.69,1.54-.46.32-1.21.48-2.25.48v-12.84Z"/>
  </g>
  <g id="text_lines" data-name="text lines">
    <rect class="cls-1" x="12.75" y="40.89" width="61.47" height="2.96" rx="1.01" ry="1.01"/>
    <rect class="cls-1" x="12.75" y="51.39" width="61.47" height="2.96" rx="1.01" ry="1.01"/>
    <rect class="cls-1" x="12.75" y="61.89" width="61.47" height="2.96" rx="1.01" ry="1.01"/>
  </g>
</svg>