<?xml version="1.0" encoding="UTF-8"?>
<svg id="red_outline_pdf" data-name="red outline pdf" xmlns="http://www.w3.org/2000/svg" viewBox="0 0 87.97 106.74">
  <defs>
    <style>
      .cls-1 {
        fill: none;
        stroke: #c10a0a;
        stroke-linecap: square;
        stroke-linejoin: round;
      }

      .cls-2 {
        fill: #da6c6c;
      }

      .cls-3 {
        fill: #c10a0a;
        font-family: K2D-ExtraBold, K2D;
        font-size: 20px;
        font-weight: 700;
      }
    </style>
  </defs>
  <g id="page">
    <path class="cls-1" d="M65.29.5H10.39C4.95.5.5,4.95.5,10.39v85.96c0,5.44,4.45,9.89,9.89,9.89h67.19c5.44,0,9.89-4.45,9.89-9.89V22.68L65.29.5Z"/>
    <path class="cls-1" d="M75.18,22.68c-5.44,0-9.89-4.45-9.89-9.89V.5s22.18,22.18,22.18,22.18h-12.29Z"/>
  </g>
  <text class="cls-3" transform="translate(24.05 94.75)"><tspan x="0" y="0">PDF</tspan></text>
  <g id="text_lines" data-name="text lines">
    <rect class="cls-2" x="13.25" y="41.39" width="61.47" height="2.96" rx="1.01" ry="1.01"/>
    <rect class="cls-2" x="13.25" y="51.89" width="61.47" height="2.96" rx="1.01" ry="1.01"/>
    <rect class="cls-2" x="13.25" y="62.39" width="61.47" height="2.96" rx="1.01" ry="1.01"/>
  </g>
</svg>