<?xml version="1.0" encoding="UTF-8"?>
<svg id="Layer_1" data-name="Layer 1" xmlns="http://www.w3.org/2000/svg" viewBox="0 0 34.11 181.05">
  <defs>
    <style>
      .cls-1 {
        fill: none;
        stroke: #2a3151;
        stroke-miterlimit: 10;
        stroke-width: 2px;
      }
    </style>
  </defs>
  <path class="cls-1" d="M4.12,178.37l-3.08-15.83c-.05-.26-.05-.53,0-.79l3.08-15.83c.19-.97,1.04-1.68,2.04-1.68h3.54c.99,0,1.85.7,2.04,1.68l3.08,15.83c.05.26.05.53,0,.79l-3.08,15.83c-.19.97-1.04,1.68-2.04,1.68h-3.54c-.99,0-1.85-.7-2.04-1.68Z"/>
  <path class="cls-1" d="M4.12,142.56l-3.08-15.83c-.05-.26-.05-.53,0-.79l3.08-15.83c.19-.97,1.04-1.68,2.04-1.68h3.54c.99,0,1.85.7,2.04,1.68l3.08,15.83c.05.26.05.53,0,.79l-3.08,15.83c-.19.97-1.04,1.68-2.04,1.68h-3.54c-.99,0-1.85-.7-2.04-1.68Z"/>
  <path class="cls-1" d="M4.12,106.75l-3.08-15.83c-.05-.26-.05-.53,0-.79l3.08-15.83c.19-.97,1.04-1.68,2.04-1.68h3.54c.99,0,1.85.7,2.04,1.68l3.08,15.83c.05.26.05.53,0,.79l-3.08,15.83c-.19.97-1.04,1.68-2.04,1.68h-3.54c-.99,0-1.85-.7-2.04-1.68Z"/>
  <path class="cls-1" d="M4.12,70.94l-3.08-15.83c-.05-.26-.05-.53,0-.79l3.08-15.83c.19-.97,1.04-1.68,2.04-1.68h3.54c.99,0,1.85.7,2.04,1.68l3.08,15.83c.05.26.05.53,0,.79l-3.08,15.83c-.19.97-1.04,1.68-2.04,1.68h-3.54c-.99,0-1.85-.7-2.04-1.68Z"/>
  <path class="cls-1" d="M4.12,35.13l-3.08-15.83c-.05-.26-.05-.53,0-.79L4.12,2.68c.19-.97,1.04-1.68,2.04-1.68h3.54c.99,0,1.85.7,2.04,1.68l3.08,15.83c.05.26.05.53,0,.79l-3.08,15.83c-.19.97-1.04,1.68-2.04,1.68h-3.54c-.99,0-1.85-.7-2.04-1.68Z"/>
  <path class="cls-1" d="M22.38,178.37l-3.08-15.83c-.05-.26-.05-.53,0-.79l3.08-15.83c.19-.97,1.04-1.68,2.04-1.68h3.54c.99,0,1.85.7,2.04,1.68l3.08,15.83c.05.26.05.53,0,.79l-3.08,15.83c-.19.97-1.04,1.68-2.04,1.68h-3.54c-.99,0-1.85-.7-2.04-1.68Z"/>
  <path class="cls-1" d="M22.38,142.56l-3.08-15.83c-.05-.26-.05-.53,0-.79l3.08-15.83c.19-.97,1.04-1.68,2.04-1.68h3.54c.99,0,1.85.7,2.04,1.68l3.08,15.83c.05.26.05.53,0,.79l-3.08,15.83c-.19.97-1.04,1.68-2.04,1.68h-3.54c-.99,0-1.85-.7-2.04-1.68Z"/>
  <path class="cls-1" d="M22.38,106.75l-3.08-15.83c-.05-.26-.05-.53,0-.79l3.08-15.83c.19-.97,1.04-1.68,2.04-1.68h3.54c.99,0,1.85.7,2.04,1.68l3.08,15.83c.05.26.05.53,0,.79l-3.08,15.83c-.19.97-1.04,1.68-2.04,1.68h-3.54c-.99,0-1.85-.7-2.04-1.68Z"/>
  <path class="cls-1" d="M22.38,70.94l-3.08-15.83c-.05-.26-.05-.53,0-.79l3.08-15.83c.19-.97,1.04-1.68,2.04-1.68h3.54c.99,0,1.85.7,2.04,1.68l3.08,15.83c.05.26.05.53,0,.79l-3.08,15.83c-.19.97-1.04,1.68-2.04,1.68h-3.54c-.99,0-1.85-.7-2.04-1.68Z"/>
  <path class="cls-1" d="M22.38,35.13l-3.08-15.83c-.05-.26-.05-.53,0-.79l3.08-15.83c.19-.97,1.04-1.68,2.04-1.68h3.54c.99,0,1.85.7,2.04,1.68l3.08,15.83c.05.26.05.53,0,.79l-3.08,15.83c-.19.97-1.04,1.68-2.04,1.68h-3.54c-.99,0-1.85-.7-2.04-1.68Z"/>
  <line class="cls-1" x1="19.24" y1="162.15" x2="14.88" y2="162.15"/>
  <line class="cls-1" x1="19.24" y1="126.34" x2="14.88" y2="126.34"/>
  <line class="cls-1" x1="19.24" y1="90.53" x2="14.88" y2="90.53"/>
  <line class="cls-1" x1="19.24" y1="54.72" x2="14.88" y2="54.72"/>
  <line class="cls-1" x1="19.24" y1="18.91" x2="14.88" y2="18.91"/>
</svg>