<?xml version="1.0" encoding="UTF-8"?>
<svg xmlns="http://www.w3.org/2000/svg" viewBox="0 0 124.95 220.29">
  <defs>
    <style>
      .cls-1 {
        fill: #545e8e;
      }

      .cls-2 {
        stroke-linecap: round;
        stroke-width: 4px;
      }

      .cls-2, .cls-3 {
        fill: none;
        stroke: #545e8e;
        stroke-miterlimit: 10;
      }

      .cls-3 {
        stroke-width: 2px;
      }
    </style>
  </defs>
  <g id="Layer_2" data-name="Layer 2">
    <path class="cls-3" d="M75.96,211.11h-26.98c-1.4,0-2.64-.93-3.03-2.27l-8.67-29.89c-.58-2.02.93-4.03,3.03-4.03h44.33c2.1,0,3.61,2.01,3.03,4.03l-8.67,29.89c-.39,1.35-1.62,2.27-3.03,2.27Z"/>
  </g>
  <g id="Layer_4" data-name="Layer 4">
    <path class="cls-2" d="M90.33,179.82c-17.19.12-34.31,1.38-51.45,2.62-2.18.16-7.65.48-6.81,3.95.73,3,6.31,2.98,8.6,3.08,3.73.17,7.45-.18,11.16-.48,6.68-.54,13.38-.91,20.08-1.11,3.35-.1,6.7-.16,10.06-.18,2.26-.01,6.36-.43,8.04,1.56,1.99,2.35-4.63,3.19-5.85,3.3-7.32.66-14.87,1.02-22.26,1.8-6.88.73-15.55,1.04-21.28,5.24-.77.56-1.51,1.27-1.73,2.2-1.13,4.75,16.59,3.18,19.1,3.17,8.36-.03,16.72-.19,25.07-.49"/>
    <path class="cls-1" d="M73.56,211.11c0,5.07-4.96,9.18-11.09,9.18s-11.09-4.11-11.09-9.18"/>
  </g>
  <g id="Layer_3" data-name="Layer 3">
    <path id="stroke" class="cls-3" d="M123.91,60.34c.48,14.32-3.93,27.59-11.69,38.26-9.67,13.3-16.22,28.61-19.01,44.81l-4.42,25.64c-.46,2.67-4.32,4.79-8.6,4.79h-35.43c-4.28,0-8.14-2.12-8.6-4.79l-4.42-25.65c-2.78-16.14-9.23-31.45-18.9-44.66C5.39,88.57,1,76.04,1,62.47,1,28.2,29.04.49,63.43,1.01c32.57.49,59.38,26.78,60.48,59.33Z"/>
    <g>
      <g>
        <path class="cls-3" d="M36.95,168.66c-1.46-6.5-2.15-9.71-3.44-15.98-.05-.26-.09-.5-.12-.71-.56-5.17-.54-7.89-.79-13.36-.04-.84.44-1.28,1.28-1.11,1.2.25,1.89.34,3.35.41,1.03.04,2.07.68,2.4,1.6,2.18,6.02,3.04,9.08,4.79,15.25.07.25.1.52.07.78-.63,6.33-.96,9.53-1.54,15.59-.09.93-.85,1.52-1.75,1.27-1.27-.35-1.86-.6-2.83-1.22-.68-.43-1.21-1.53-1.44-2.53Z"/>
        <path class="cls-3" d="M31.99,135.56c-2.1-6-3.3-8.9-6.11-14.38-.12-.23-.21-.45-.26-.66-1.36-5.13-2-7.73-3.18-12.9-.18-.8.47-1.4,1.67-1.48,1.71-.11,2.64-.18,4.57-.4,1.35-.15,2.79.26,3.34,1.06,3.58,5.18,5.15,7.85,7.84,13.46.11.23.16.48.15.73-.25,6.08-.39,9.22-.83,15.32-.07.94-.91,1.65-1.94,1.61-1.46-.06-2.15-.16-3.35-.41-.84-.18-1.57-1.02-1.89-1.94Z"/>
        <path class="cls-3" d="M21.08,104.92c-3.98-4.97-6.49-7.06-10.59-11.67-.17-.19-.28-.4-.33-.61-1.2-5.09-1.3-7.91-.79-13.92.08-.92,1.27-1.84,2.9-2.17,2.32-.47,3.54-.71,6.05-1.21,1.76-.35,3.42,0,3.92.84,3.26,5.47,5.08,8.1,8.64,13.12.15.21.21.44.19.67-.47,5.74-.25,8.33-.08,13.95.03.87-.98,1.64-2.33,1.8-1.93.22-2.86.29-4.57.4-1.2.08-2.41-.45-3.02-1.22Z"/>
        <path class="cls-3" d="M8.71,75.73c-3.06-5.3-4.38-8.02-6.2-13.38-.08-.22-.07-.47,0-.75,1.86-6.56,3.24-9.86,6.38-16.3.48-.99,1.97-2.14,3.59-2.73,2.31-.83,3.51-1.24,5.96-2.02,1.72-.55,3.12-.35,3.33.48,1.33,5.37,2.32,8.23,4.62,14.2.09.25.1.52,0,.81-2.28,7.03-3.25,10.49-4.64,16.99-.21,1-1.66,1.98-3.42,2.33-2.51.5-3.73.74-6.05,1.21-1.63.33-3.09-.02-3.56-.84Z"/>
        <path class="cls-3" d="M9.59,42.3c-.48-4.83-.36-7.05.68-10.91.04-.16.16-.36.33-.6,4.28-5.82,6.62-8.65,11.32-13.97.72-.82,2.05-2.04,3.19-2.89,1.64-1.2,2.49-1.77,4.23-2.84,1.22-.75,2.02-.86,1.89-.29-.8,3.69-.84,5.82-.37,10.51.02.19-.04.42-.19.67-3.47,6.07-5.22,9.3-8.42,15.88-.49,1.01-2.11,2.13-3.83,2.68-2.45.78-3.65,1.19-5.96,2.02-1.62.58-2.81.47-2.89-.27Z"/>
        <path class="cls-3" d="M52.74,171.14c-1.46-6.38-2.24-9.56-3.87-15.84-.07-.26-.09-.53-.05-.79.77-6.41,1.24-9.67,2.1-16.04.13-.98,1-1.74,2.07-1.8,1.53-.09,2.29-.13,3.83-.18,1.08-.04,2.03.64,2.25,1.62,1.46,6.32,2.11,9.59,3.34,16.05.05.27.05.54,0,.81-1.21,6.46-1.77,9.7-2.78,16.16-.16.99-.91,1.71-1.8,1.71-1.27,0-1.91,0-3.18,0-.89,0-1.69-.71-1.92-1.69Z"/>
        <path class="cls-3" d="M50.66,135.14c-1.83-6.14-2.85-9.13-5.27-14.9-.1-.24-.14-.49-.12-.74.55-6.1.85-9.1,1.63-14.93.12-.9,1.25-1.65,2.69-1.77,2.06-.18,3.1-.25,5.18-.36,1.46-.08,2.76.51,3.08,1.38,2.08,5.65,2.96,8.6,4.52,14.64.06.25.06.51,0,.76-1.54,6.06-2.19,9.18-3.39,15.51-.19.97-1.1,1.7-2.18,1.74-1.54.05-2.31.09-3.83.18-1.07.06-2.03-.57-2.32-1.51Z"/>
        <path class="cls-3" d="M46.38,101.61c-2.82-5.37-4.56-7.69-7.82-12.85-.13-.21-.19-.44-.15-.68.91-5.78,1.63-8.87,3.4-15.26.27-.98,1.83-1.86,3.72-2.05,2.7-.26,4.06-.37,6.8-.53,1.92-.11,3.6.52,3.99,1.46,2.54,6.1,3.8,9.07,5.99,14.67.09.23.09.47,0,.7-2.16,5.57-3.06,8.07-4.61,13.76-.24.88-1.46,1.55-2.92,1.62-2.08.11-3.12.18-5.18.36-1.44.12-2.78-.37-3.22-1.2Z"/>
        <path class="cls-3" d="M41.55,69.54c-2.8-5.95-4.2-9.02-6.6-15.2-.1-.26-.1-.53,0-.82,2.36-6.99,3.73-10.43,6.48-17.02.42-1.01,2.09-1.96,3.99-2.2,2.71-.35,4.08-.49,6.84-.7,1.93-.15,3.59.46,3.95,1.42,2.32,6.18,3.6,9.45,6.1,16.15.1.28.1.56,0,.84-2.52,6.7-3.79,10.02-6.05,16.4-.35.98-1.99,1.73-3.91,1.85-2.74.16-4.1.27-6.8.53-1.89.18-3.56-.31-3.99-1.23Z"/>
        <path class="cls-3" d="M41.65,33.22c-1.83-5.75-2.58-8.46-3.55-13.43-.04-.2,0-.44.14-.68,3.17-5.98,4.77-8.82,7.74-14.03.46-.8,1.81-1.64,3.26-1.95,2.07-.44,3.11-.62,5.24-.89,1.49-.19,2.74.23,2.99.95,1.58,4.68,2.59,7.28,4.83,12.85.09.23.09.47,0,.7-2.24,5.62-3.5,8.64-6.04,14.94-.39.97-2.08,1.75-4.02,1.89-2.76.21-4.13.35-6.84.7-1.9.24-3.47-.19-3.75-1.07Z"/>
        <path class="cls-3" d="M48.78,154.91c-1.7.09-2.55.14-4.24.25"/>
        <path class="cls-3" d="M45.26,119.89c-2.11.25-3.16.4-5.23.72"/>
        <path class="cls-3" d="M38.38,88.44c-2.94.42-4.39.66-7.27,1.19"/>
        <path class="cls-3" d="M34.81,53.95c-3.35.58-5.01.91-8.28,1.65"/>
        <path class="cls-3" d="M38.06,19.48c-2.91.75-4.35,1.18-7.16,2.13"/>
      </g>
      <g>
        <path class="cls-3" d="M65.31,171.11c-1.01-6.46-1.57-9.7-2.79-16.16-.05-.27-.05-.54,0-.81,1.22-6.46,1.87-9.73,3.33-16.05.22-.97,1.17-1.65,2.25-1.62,1.54.05,2.31.09,3.83.18,1.07.06,1.94.82,2.07,1.81.86,6.37,1.34,9.64,2.11,16.05.03.26.01.53-.05.79-1.63,6.28-2.4,9.46-3.86,15.84-.22.98-1.03,1.69-1.92,1.69-1.27,0-1.91,0-3.18,0-.89,0-1.64-.72-1.8-1.71Z"/>
        <path class="cls-3" d="M65.92,134.74c-1.21-6.33-1.85-9.45-3.4-15.51-.06-.25-.06-.51,0-.76,1.56-6.04,2.43-8.99,4.5-14.64.32-.87,1.62-1.46,3.08-1.38,2.09.11,3.12.18,5.19.36,1.45.12,2.58.88,2.7,1.77.8,5.83,1.09,8.83,1.65,14.93.02.25-.02.5-.12.74-2.41,5.76-3.44,8.75-5.27,14.89-.28.94-1.25,1.58-2.32,1.51-1.53-.09-2.29-.13-3.83-.18-1.08-.04-1.99-.76-2.18-1.74Z"/>
        <path class="cls-3" d="M67.18,100.82c-1.56-5.69-2.49-8.19-4.66-13.76-.09-.23-.09-.47,0-.7,2.18-5.6,3.43-8.56,5.97-14.67.39-.94,2.07-1.57,3.99-1.46,2.74.16,4.1.27,6.8.54,1.89.19,3.46,1.07,3.73,2.05,1.77,6.39,2.49,9.47,3.43,15.25.04.24-.01.47-.15.68-3.25,5.15-4.97,7.47-7.78,12.85-.43.83-1.77,1.32-3.21,1.2-2.06-.18-3.1-.25-5.19-.36-1.46-.07-2.69-.75-2.93-1.62Z"/>
        <path class="cls-3" d="M68.57,68.39c-2.27-6.38-3.53-9.69-6.04-16.4-.1-.28-.1-.56,0-.84,2.52-6.7,3.81-9.97,6.12-16.15.36-.95,2.02-1.56,3.95-1.41,2.76.21,4.13.36,6.85.71,1.9.25,3.57,1.19,3.99,2.21,2.76,6.61,4.12,10.06,6.47,17.06.1.29.1.57,0,.82-2.43,6.16-3.83,9.23-6.64,15.16-.43.91-2.1,1.4-4,1.22-2.7-.27-4.06-.37-6.8-.54-1.92-.11-3.56-.87-3.91-1.85Z"/>
        <path class="cls-3" d="M68.59,31.69c-2.55-6.31-3.82-9.33-6.08-14.94-.09-.23-.09-.47,0-.7,2.22-5.58,3.22-8.18,4.77-12.87.24-.72,1.49-1.15,2.98-.96,2.13.26,3.18.44,5.25.88,1.45.31,2.81,1.15,3.27,1.95,3,5.22,4.62,8.06,7.82,14.06.13.25.18.48.14.69-.95,4.97-1.71,7.69-3.53,13.44-.28.89-1.85,1.31-3.76,1.07-2.72-.35-4.09-.5-6.85-.71-1.93-.15-3.63-.93-4.02-1.9Z"/>
        <path class="cls-3" d="M81.98,171.14c-.58-6.06-.91-9.25-1.55-15.58-.03-.26,0-.53.07-.78,1.75-6.18,2.61-9.23,4.78-15.25.34-.93,1.38-1.56,2.41-1.6,1.47-.06,2.16-.15,3.36-.4.84-.17,1.32.27,1.28,1.11-.25,5.47-.22,8.19-.78,13.35-.02.21-.06.46-.12.71-1.29,6.27-1.98,9.48-3.44,15.97-.22,1-.76,2.1-1.44,2.53-.97.61-1.56.87-2.83,1.22-.89.24-1.66-.34-1.75-1.27Z"/>
        <path class="cls-3" d="M85.75,136.31c-.44-6.1-.58-9.24-.83-15.32-.01-.25.04-.5.15-.73,2.7-5.6,4.26-8.27,7.84-13.45.55-.8,1.99-1.21,3.34-1.06,1.94.22,2.87.3,4.58.41,1.2.08,1.86.69,1.68,1.49-1.17,5.18-1.81,7.77-3.17,12.91-.06.21-.15.44-.26.66-2.82,5.47-4.02,8.37-6.13,14.36-.32.92-1.06,1.76-1.9,1.94-1.2.25-1.89.34-3.36.4-1.03.04-1.87-.67-1.94-1.61Z"/>
        <path class="cls-3" d="M93.91,103.95c.15-5.64.36-8.23-.13-13.96-.02-.24.04-.46.19-.67,3.56-5.01,5.37-7.62,8.64-13.07.5-.84,2.17-1.18,3.93-.82,2.51.51,3.74.75,6.07,1.23,1.63.34,2.82,1.26,2.91,2.18.52,5.99.42,8.8-.76,13.87-.05.21-.16.41-.33.6-4.09,4.58-6.6,6.67-10.56,11.65-.61.77-1.82,1.29-3.02,1.21-1.71-.12-2.64-.19-4.58-.41-1.36-.16-2.36-.94-2.34-1.8Z"/>
        <path class="cls-3" d="M103.12,73.09c-1.39-6.49-2.36-9.94-4.63-16.96-.09-.29-.09-.57,0-.81,2.33-5.96,3.32-8.83,4.66-14.2.21-.83,1.62-1.02,3.34-.47,2.46.8,3.66,1.2,5.98,2.05,1.62.59,3.11,1.76,3.6,2.75,3.15,6.48,4.52,9.8,6.37,16.38.08.27.08.52,0,.74-1.86,5.32-3.18,8.01-6.25,13.27-.47.81-1.94,1.15-3.57.81-2.33-.48-3.55-.72-6.07-1.23-1.76-.36-3.21-1.34-3.43-2.34Z"/>
        <path class="cls-3" d="M102.64,37.95c-3.21-6.6-4.97-9.84-8.46-15.93-.14-.25-.21-.48-.19-.67.46-4.69.41-6.83-.41-10.53-.13-.57.68-.46,1.9.29,1.75,1.08,2.6,1.65,4.25,2.86,1.16.85,2.49,2.08,3.22,2.9,4.73,5.35,7.09,8.19,11.39,14.05.18.24.29.45.33.61,1.05,3.87,1.17,6.09.69,10.93-.07.74-1.27.85-2.9.25-2.32-.85-3.52-1.26-5.98-2.05-1.72-.56-3.35-1.68-3.85-2.7Z"/>
        <path class="cls-3" d="M80.4,155.16c-1.69-.11-2.54-.16-4.24-.25"/>
        <path class="cls-3" d="M84.92,120.61c-2.08-.33-3.13-.47-5.24-.73"/>
        <path class="cls-3" d="M93.77,89.63c-2.88-.54-4.34-.78-7.28-1.2"/>
        <path class="cls-3" d="M98.36,55.7c-3.28-.75-4.94-1.09-8.3-1.69"/>
        <path class="cls-3" d="M93.98,21.64c-2.82-.96-4.26-1.4-7.18-2.15"/>
      </g>
    </g>
  </g>
</svg>